<svg width="16" height="16" viewBox="0 0 16 16" fill="none" xmlns="http://www.w3.org/2000/svg">
<path d="M4.19937 0.366117C4.68752 -0.122039 5.47898 -0.122039 5.96714 0.366117C6.45529 0.854272 6.45529 1.64573 5.96714 2.13388L5.60102 2.5H8.41659C11.8684 2.5 14.6666 5.29822 14.6666 8.75C14.6666 12.2018 11.8684 15 8.41659 15C5.89228 15 3.72012 13.5035 2.73389 11.3547C2.44593 10.7273 2.72111 9.98524 3.34854 9.69727C3.97597 9.40931 4.71804 9.68449 5.00601 10.3119C5.5998 11.6057 6.90506 12.5 8.41659 12.5C10.4877 12.5 12.1666 10.8211 12.1666 8.75C12.1666 6.67893 10.4877 5 8.41659 5H5.60102L5.96714 5.36612C6.45529 5.85427 6.45529 6.64573 5.96714 7.13388C5.47898 7.62204 4.68752 7.62204 4.19937 7.13388L1.69937 4.63388C1.21121 4.14573 1.21121 3.35427 1.69937 2.86612L4.19937 0.366117Z" fill="black"/>
</svg>
