<svg width="20" height="20" viewBox="0 0 20 20" fill="none" xmlns="http://www.w3.org/2000/svg">
<path fill-rule="evenodd" clip-rule="evenodd" d="M2.57401 7.5297C2.02579 9.17773 2.04135 10.9613 2.61825 12.5995C3.19516 14.2377 4.30062 15.6375 5.76054 16.5783C7.22045 17.5192 8.95186 17.9477 10.6821 17.7963C12.4123 17.6449 14.043 16.9223 15.3174 15.7422C16.5917 14.5622 17.4373 12.9917 17.721 11.2782C18.0047 9.5647 17.7103 7.80552 16.8842 6.27772C16.0581 4.74993 14.7473 3.54034 13.1582 2.83945C11.569 2.13856 9.79192 1.98621 8.10669 2.40638C7.52422 2.55161 6.93429 2.19715 6.78907 1.61468C6.64384 1.0322 6.9983 0.442276 7.58078 0.297048C9.73413 -0.239843 12.0049 -0.0451679 14.0354 0.850409C16.066 1.74599 17.7409 3.29158 18.7965 5.24376C19.852 7.19594 20.2282 9.44378 19.8657 11.6333C19.5032 13.8227 18.4227 15.8294 16.7944 17.3373C15.1661 18.8452 13.0824 19.7685 10.8715 19.9619C8.66072 20.1554 6.44836 19.6079 4.58291 18.4057C2.71746 17.2035 1.30493 15.4149 0.567772 13.3216C-0.169384 11.2283 -0.189272 8.94932 0.51124 6.84351C0.700727 6.27389 1.3161 5.96573 1.88572 6.15522C2.45534 6.3447 2.7635 6.96008 2.57401 7.5297Z" fill="white"/>
</svg>
